<svg xmlns="http://www.w3.org/2000/svg" width="32" height="32" viewBox="0 0 8.467 8.467" id="bonsai">
  <path fill="#b4ea7a" d="M7.26 3.668a3.274 3.274 0 0 1-3.274 3.275A3.274 3.274 0 0 1 .712 3.668 3.274 3.274 0 0 1 3.986.394a3.274 3.274 0 0 1 3.275 3.274z"></path>
  <g fill="#3a3640" color="#000" font-family="sans-serif" font-weight="400">
    <path d="M-314.822 213.66a.794.794 0 0 0-.649.338.454.454 0 0 0-.52.33c-.202-.001-.419.203-.419.457 0 .255.209.463.463.463h1.4c.177 0 .177-.265 0-.265h-1.4a.196.196 0 0 1-.2-.198.198.198 0 0 1 .237-.195.132.132 0 0 0 .162-.134c0-.112.086-.2.197-.2a.21.21 0 0 1 .084.018c.064.029.14.003.172-.059a.53.53 0 0 1 .967.055c.026.07.105.104.174.076a.335.335 0 0 1 .254.002c.163.07.266-.175.103-.244a.602.602 0 0 0-.335-.038.788.788 0 0 0-.69-.406z" overflow="visible" style="line-height:normal;font-variant-ligatures:normal;font-variant-position:normal;font-variant-caps:normal;font-variant-numeric:normal;font-variant-alternates:normal;font-feature-settings:normal;text-indent:0;text-align:start;text-decoration-line:none;text-decoration-style:solid;text-decoration-color:#000;text-transform:none;text-orientation:mixed;shape-padding:0;isolation:auto;mix-blend-mode:normal" transform="translate(319.128 -213.66)"></path>
    <path d="M-313.158 214.256c-.292-.002-.538.204-.602.398a.458.458 0 0 0-.457.461c0 .254.211.463.465.463h1.256a.398.398 0 0 0 .397-.397.394.394 0 0 0-.41-.394.655.655 0 0 0-.649-.531zm0 .264a.398.398 0 0 1 .396.417.132.132 0 0 0 .2.131.13.13 0 0 1 .197.113.13.13 0 0 1-.13.133h-1.259a.198.198 0 0 1-.197-.199c0-.11.087-.196.197-.197.015 0 .032.001.051.006a.132.132 0 0 0 .16-.098c.092-.229.23-.304.385-.306zm-3.703.794c-.332.004-.586.165-.766.522a.565.565 0 0 0 0 1.13h1.615a.479.479 0 0 0 0-.959.358.358 0 0 0-.046.006c-.096-.506-.482-.696-.803-.699zm0 .264c.303 0 .547.25.547.563v.037a.132.132 0 0 0 .199.125.2.2 0 0 1 .103-.03.21.21 0 0 1 .21.215.21.21 0 0 1-.21.215h-1.615a.295.295 0 0 1-.293-.3c0-.17.131-.303.293-.303.023 0 .047.004.072.01a.132.132 0 0 0 .16-.1.549.549 0 0 1 .534-.432zm1.44 3.11a.657.657 0 0 0-.605.397.456.456 0 0 0-.454.462c.012.31.253.464.462.463.132-.002.18-.174.069-.245a.132.132 0 0 0-.07-.02.198.198 0 0 1-.198-.198c0-.112.088-.198.2-.198.014 0 .031.001.05.006a.132.132 0 0 0 .158-.097.396.396 0 0 1 .782.111c-.022.176.241.209.263.033.002-.02.002-.038.002-.053a.659.659 0 0 0-.66-.661z" overflow="visible" style="line-height:normal;font-variant-ligatures:normal;font-variant-position:normal;font-variant-caps:normal;font-variant-numeric:normal;font-variant-alternates:normal;font-feature-settings:normal;text-indent:0;text-align:start;text-decoration-line:none;text-decoration-style:solid;text-decoration-color:#000;text-transform:none;text-orientation:mixed;shape-padding:0;isolation:auto;mix-blend-mode:normal" transform="translate(319.128 -213.66)"></path>
    <path d="M-315.223 215.445a.133.133 0 0 0-.117.133l-.011 1.785c0 .095.012.181.036.269l-.566-.005a.25.25 0 0 1-.263-.264v-.53h-.266v.53c0 .292.237.53.53.53l.751.004c.1 0 .166-.105.12-.194a.772.772 0 0 1-.078-.338l.01-1.785a.132.132 0 0 0-.146-.135zm-.923 5.49v.53c0 .364.298.662.662.662h3.176c.364 0 .66-.298.66-.662v-.53h-.264v.53a.394.394 0 0 1-.396.398h-3.176a.394.394 0 0 1-.397-.398v-.53z" overflow="visible" style="line-height:normal;font-variant-ligatures:normal;font-variant-position:normal;font-variant-caps:normal;font-variant-numeric:normal;font-variant-alternates:normal;font-feature-settings:normal;text-indent:0;text-align:start;text-decoration-line:none;text-decoration-style:solid;text-decoration-color:#000;text-transform:none;text-orientation:mixed;shape-padding:0;isolation:auto;mix-blend-mode:normal" transform="translate(319.128 -213.66)"></path>
    <path d="M-311.713 220.275c.108 0 .175.079.211.15a.546.546 0 0 1 .053.247.546.546 0 0 1-.053.246c-.036.072-.103.15-.21.15h-4.368c-.108 0-.175-.078-.21-.15a.546.546 0 0 1-.054-.246c0-.091.017-.174.053-.246.036-.072.103-.15.211-.15zm0 .264h-4.367c.034 0 .037-.02.025.004a.319.319 0 0 0-.025.129c0 .055.014.105.025.129.012.024.01.004-.025.004h4.367c-.034 0-.037.02-.025-.004a.319.319 0 0 0 .025-.129.32.32 0 0 0-.025-.129c-.012-.024-.009-.004.025-.004z" overflow="visible" style="line-height:normal;font-variant-ligatures:normal;font-variant-position:normal;font-variant-caps:normal;font-variant-numeric:normal;font-variant-alternates:normal;font-feature-settings:normal;text-indent:0;text-align:start;text-decoration-line:none;text-decoration-style:solid;text-decoration-color:#000;text-transform:none;text-orientation:mixed;shape-padding:0;isolation:auto;mix-blend-mode:normal" transform="translate(319.128 -213.66)"></path>
    <path d="M-316.94 216.834v.531c0 .581.478 1.057 1.06 1.057l1.85.002c.158 0 .267.107.267.264v.837c0 .089-.117.221-.264.221l-1.192-.002a.664.664 0 0 0-.662.662c-.004.105.299.061.264 0 0-.222.176-.398.398-.398l1.192.002c.29 0 .527-.22.527-.485v-.837a.53.53 0 0 0-.53-.53h-1.85a.797.797 0 0 1-.794-.795v-.529z" overflow="visible" style="line-height:normal;font-variant-ligatures:normal;font-variant-position:normal;font-variant-caps:normal;font-variant-numeric:normal;font-variant-alternates:normal;font-feature-settings:normal;text-indent:0;text-align:start;text-decoration-line:none;text-decoration-style:solid;text-decoration-color:#000;text-transform:none;text-orientation:mixed;shape-padding:0;isolation:auto;mix-blend-mode:normal" transform="translate(319.128 -213.66)"></path>
    <path d="m-313.623 215.443-.01.596v.002a.25.25 0 0 1-.264.264h-.66l.01-.725c.02-.19-.276-.195-.263-.004l-.012.86a.133.133 0 0 0 .13.134h.796a.53.53 0 0 0 .529-.527l.01-.596zm.53 0-.01.596a.8.8 0 0 1-.794.795h-.793a.132.132 0 0 0-.132.133v.396a.53.53 0 0 0 .527.53l.266.002c.436 0 .795.356.795.793v.835c0 .265.26.485.63.485.259 0 .426.176.426.398 0 .177.266.177.266 0a.675.675 0 0 0-.691-.662c-.275 0-.368-.134-.368-.22v-.836c0-.58-.476-1.058-1.056-1.059h-.002l-.264-.002c-.157 0-.266-.107-.266-.264v-.265l.662.002c.581 0 1.05-.479 1.06-1.057l.01-.596zm-2.313 5.838v.264h.264v-.264zm.53 0v.264h.263v-.264zm.529 0v.264h.263v-.264zm.529 0v.264h.264v-.264zm.53 0v.264h.263v-.264zm.528 0v.264h.264v-.264z" overflow="visible" style="line-height:normal;font-variant-ligatures:normal;font-variant-position:normal;font-variant-caps:normal;font-variant-numeric:normal;font-variant-alternates:normal;font-feature-settings:normal;text-indent:0;text-align:start;text-decoration-line:none;text-decoration-style:solid;text-decoration-color:#000;text-transform:none;text-orientation:mixed;shape-padding:0;isolation:auto;mix-blend-mode:normal" transform="translate(319.128 -213.66)"></path>
    <path d="M-312.43 217.233a.658.658 0 0 0-.658.715c.022.176.286.143.264-.033 0-.004-.003-.01-.003-.02 0-.22.176-.396.397-.396.184 0 .344.125.386.304.017.07.088.114.158.098a.192.192 0 0 1 .051-.006c.111 0 .2.086.2.197 0 .11-.087.198-.198.2-.294-.003-.594-.001-.847-.001-.163.02-.15.26.013.263h.831c.21.002.451-.151.463-.462 0-.254-.2-.461-.454-.461a.657.657 0 0 0-.604-.398z" overflow="visible" style="line-height:normal;font-variant-ligatures:normal;font-variant-position:normal;font-variant-caps:normal;font-variant-numeric:normal;font-variant-alternates:normal;font-feature-settings:normal;text-indent:0;text-align:start;text-decoration-line:none;text-decoration-style:solid;text-decoration-color:#000;text-transform:none;text-orientation:mixed;shape-padding:0;isolation:auto;mix-blend-mode:normal" transform="translate(319.128 -213.66)"></path>
  </g>
</svg>
